<svg width="100" height="104" viewBox="0 0 100 104" fill="none" xmlns="http://www.w3.org/2000/svg">
<path d="M20.5512 101.352C21.122 102.49 22.1204 103.355 23.327 103.756C24.5337 104.157 25.8498 104.061 26.9861 103.49L27.1624 103.401C49.0969 91.2999 70.131 77.6271 90.1007 62.4895C90.6089 62.1003 91.029 61.6075 91.3335 61.0439C91.638 60.4802 91.82 59.8582 91.8674 59.219C91.9149 58.5798 91.8268 57.9377 91.6089 57.335C91.391 56.7324 91.0482 56.1828 90.6032 55.7224C69.8265 72.1013 45.894 87.4731 20.5512 101.352Z" fill="#9DA49D"/>
<path d="M86.8392 1.16137C57.9792 22.2137 29.701 41.1457 2.128 56.4291C1.15857 57.0753 0.458478 58.0546 0.159708 59.1823C-0.139062 60.31 -0.0158676 61.5084 0.506058 62.5514L19.2818 98.7723C44.9596 85.3529 68.1869 70.3344 88.7168 53.4961L70.417 31.154C70.1989 30.8943 70.07 30.571 70.0494 30.2322C70.0287 29.8933 70.1175 29.5567 70.3025 29.2723C71.3986 27.1254 72.7385 25.1125 74.2956 23.2738C76.0555 21.4474 78.2299 20.0744 80.6335 19.2718L85.9225 17.3901C87.527 16.7296 88.9681 15.7256 90.1448 14.4483C92.2604 12.328 95.5395 14.4483 95.5395 14.4483C104.416 11.3739 97.3025 3.51132 97.3025 3.51132C96.2167 1.81989 94.5101 0.624977 92.5519 0.185182C90.5936 -0.254614 88.5414 0.096079 86.8392 1.16137ZM10.9253 64.4242C10.57 64.6647 10.1709 64.8326 9.75082 64.9183C9.33074 65.0041 8.89791 65.006 8.47709 64.9239C8.05628 64.8419 7.65574 64.6775 7.29837 64.4402C6.941 64.2028 6.63381 63.8972 6.3944 63.5408L6.35034 63.4701C5.88448 62.7331 5.72155 61.8438 5.89576 60.9889C6.06997 60.1341 6.56778 59.3801 7.28472 58.8851C7.63596 58.643 8.03138 58.4726 8.44837 58.3837C8.86536 58.2948 9.29575 58.2892 9.71491 58.3672C10.1341 58.4451 10.5338 58.6051 10.8912 58.838C11.2486 59.0709 11.5568 59.3721 11.7979 59.7244L11.8597 59.8215C12.3282 60.5594 12.4927 61.4507 12.3184 62.3076C12.1441 63.1646 11.6446 63.9203 10.9253 64.4154L10.9253 64.4242Z" fill="#9DA49D"/>
</svg>
